#!OML:ASF C:\ViconDB\ViconDB\414\Spring2016\041811\Spring2016.ASF
:FULLY-SPECIFIED
:DEGREES
355
root 9.09387 18.1075 -44.8361 -181.976 -4.72311 -181.16
lowerback -0.22294 -1.69035 -3.5466
upperback 0.201746 -2.24392 0.815336
thorax 0.500959 -1.13532 2.80594
lowerneck -9.08304 -4.73864 -9.67581
upperneck 25.4922 -6.13359 12.2122
head 10.2894 -1.72891 5.45672
rclavicle 9.94545e-015 7.15625e-015
rhumerus -56.322 -24.6813 -67.886
rradius 30.3479
rwrist 48.7253
rhand -31.0232 -12.0026
rfingers 7.12502
rthumb -4.3055 -41.9389
lclavicle 9.94545e-015 7.15625e-015
lhumerus -32.2284 -3.59345 87.7423
lradius 36.0408
lwrist -28.0115
lhand -30.0676 15.2275
lfingers 7.12502
lthumb -3.38273 45.1804
rfemur -24.6643 -15.853 22.6547
rtibia 36.427
rfoot -159.484 4.67483
rtoes -19.3937
lfemur 10.1676 0.25375 -15.9689
ltibia 33.9551
lfoot -1.95468 -12.9782
ltoes -17.7678
356
root 9.11194 18.126 -45.0269 -181.656 -4.62031 -179.367
lowerback -0.6483 -1.60551 -1.42569
upperback 0.0969967 -2.14598 1.30645
thorax 0.564897 -1.08421 2.11103
lowerneck -9.1588 -4.70828 -9.69563
upperneck 25.5097 -6.06039 12.0995
head 10.2982 -1.70998 5.42672
rclavicle 6.13748e-015 -1.98785e-015
rhumerus -55.9035 -25.1117 -67.8204
rradius 30.6537
rwrist 48.8262
rhand -30.4435 -12.3194
rfingers 7.12502
rthumb -3.74571 -42.2663
lclavicle 6.13748e-015 -1.98785e-015
lhumerus -32.6704 -2.74759 87.9084
lradius 34.8567
lwrist -26.6161
lhand -30.937 13.9607
lfingers 7.12502
lthumb -4.2223 43.8986
rfemur -24.334 -15.985 24.748
rtibia 36.3199
rfoot -159.749 5.23122
rtoes -19.5832
lfemur 7.8614 1.11319 -13.18
ltibia 37.3897
lfoot 1.02559 -13.6015
ltoes -16.2748
357
root 9.14549 18.1397 -45.2234 -181.594 -4.56694 -180.17
lowerback -0.688497 -1.64372 -2.4022
upperback 0.0818806 -2.18183 1.1589
thorax 0.604564 -1.10301 2.50551
lowerneck -9.13129 -4.56677 -9.49172
upperneck 25.5202 -5.85098 11.9045
head 10.2555 -1.61593 5.34293
rclavicle 1.82074e-014 -1.03368e-014
rhumerus -55.4056 -25.2859 -67.924
rradius 30.6254
rwrist 49.1273
rhand -30.4986 -12.1828
rfingers 7.12502
rthumb -3.79895 -42.1287
lclavicle 1.82074e-014 -1.03368e-014
lhumerus -33.2419 -1.49557 87.6172
lradius 33.9597
lwrist -27.528
lhand -30.3743 14.6901
lfingers 7.12502
lthumb -3.67895 44.6381
rfemur -23.5538 -16.2183 23.8427
rtibia 36.2225
rfoot -159.911 5.92086
rtoes -19.4277
lfemur 6.11139 1.72904 -13.4918
ltibia 40.6288
lfoot 3.97007 -13.656
ltoes -14.3198
358
root 9.17845 18.1533 -45.3911 -181.807 -4.45061 -179.947
lowerback -0.284227 -1.43828 -2.04061
upperback 0.240774 -1.91976 1.20059
thorax 0.514117 -0.972191 2.35827
lowerneck -9.33342 -2.3566 -10.1434
upperneck 24.7742 -6.7416 12.9024
head 10.1184 -3.49957 5.43164
rclavicle 1.23433e-014 -2.42517e-014
rhumerus -54.4492 -25.3885 -68.5678
rradius 30.7047
rwrist 48.3988
rhand -30.8843 -12.5269
rfingers 7.12502
rthumb -4.17142 -42.4658
lclavicle 1.23433e-014 -2.42517e-014
lhumerus -33.2629 -0.749213 87.5455
lradius 32.8837
lwrist -28.7991
lhand -29.7005 15.6315
lfingers 7.12502
lthumb -3.02821 45.5897
rfemur -22.4472 -15.9624 24.0635
rtibia 35.8307
rfoot -160.36 6.13844
rtoes -19.4647
lfemur 4.30978 2.4396 -12.6048
ltibia 43.9436
lfoot 6.72429 -13.6407
ltoes -13.6887
